INFO: Created TensorFlow Lite XNNPACK delegate for CPU.
W0000 00:00:1778437369.105033   27160 inference_feedback_manager.cc:121] Feedback manager requires a model with a single signature inference. Disabling support for feedback tensors.
ffmpeg version 8.1.1-full_build-www.gyan.dev Copyright (c) 2000-2026 the FFmpeg developers
  built with gcc 15.2.0 (Rev13, Built by MSYS2 project)
  configuration: --enable-gpl --enable-version3 --enable-static --disable-w32threads --disable-autodetect --enable-cairo --enable-fontconfig --enable-iconv --enable-gnutls --enable-lcms2 --enable-libxml2 --enable-gmp --enable-bzlib --enable-lzma --enable-libsnappy --enable-zlib --enable-librist --enable-libsrt --enable-libssh --enable-libzmq --enable-avisynth --enable-libbluray --enable-libcaca --enable-libdvdnav --enable-libdvdread --enable-sdl2 --enable-libaribb24 --enable-libaribcaption --enable-libdav1d --enable-libdavs2 --enable-libopenjpeg --enable-libquirc --enable-libuavs3d --enable-libxevd --enable-libzvbi --enable-liboapv --enable-libqrencode --enable-librav1e --enable-libsvtav1 --enable-libvvenc --enable-libwebp --enable-libx264 --enable-libx265 --enable-libxavs2 --enable-libxeve --enable-libxvid --enable-libaom --enable-libjxl --enable-libsvtjpegxs --enable-libvpx --enable-mediafoundation --enable-libass --enable-frei0r --enable-libfreetype --enable-libfribidi --enable-libharfbuzz --enable-liblensfun --enable-libvidstab --enable-libvmaf --enable-libzimg --enable-amf --enable-cuda-llvm --enable-cuvid --enable-dxva2 --enable-d3d11va --enable-d3d12va --enable-ffnvcodec --enable-libvpl --enable-nvdec --enable-nvenc --enable-vaapi --enable-libshaderc --enable-vulkan --enable-libplacebo --enable-opencl --enable-libcdio --enable-openal --enable-libgme --enable-libmodplug --enable-libopenmpt --enable-libopencore-amrwb --enable-libmp3lame --enable-libshine --enable-libtheora --enable-libtwolame --enable-libvo-amrwbenc --enable-libcodec2 --enable-libilbc --enable-libgsm --enable-liblc3 --enable-libopencore-amrnb --enable-libopus --enable-libspeex --enable-libvorbis --enable-ladspa --enable-libbs2b --enable-libflite --enable-libmysofa --enable-librubberband --enable-libsoxr --enable-chromaprint --enable-whisper
  libavutil      60. 26.101 / 60. 26.101
  libavcodec     62. 28.101 / 62. 28.101
  libavformat    62. 12.101 / 62. 12.101
  libavdevice    62.  3.101 / 62.  3.101
  libavfilter    11. 14.101 / 11. 14.101
  libswscale      9.  5.101 /  9.  5.101
  libswresample   6.  3.101 /  6.  3.101
Input #0, avi, from 'C:\Users\Macie\AppData\Local\Temp\face_track_53g_y5er\segment_1_06-57_53_07-47_13_silent.avi':
  Metadata:
    software        : Lavf62.12.101
  Duration: 00:00:49.60, start: 0.000000, bitrate: 6874 kb/s
  Stream #0:0: Video: h264 (High) (H264 / 0x34363248), yuvj420p(pc, bt470bg/unknown/unknown, progressive), 1080x1920 [SAR 1:1 DAR 9:16], 6873 kb/s, 25 fps, 25 tbr, 25 tbn
Input #1, mov,mp4,m4a,3gp,3g2,mj2, from 'C:\Users\Macie\AppData\Local\Temp\face_track_53g_y5er\segment_1_06-57_53_07-47_13_audio.m4a':
  Metadata:
    major_brand     : M4A 
    minor_version   : 512
    compatible_brands: M4A isomiso2
    encoder         : Lavf62.12.101
  Duration: 00:00:49.60, start: 0.000000, bitrate: 193 kb/s
  Stream #1:0[0x1](eng): Audio: aac (LC) (mp4a / 0x6134706D), 48000 Hz, stereo, fltp, 192 kb/s (default)
    Metadata:
      handler_name    : SoundHandler
Stream mapping:
  Stream #0:0 -> #0:0 (h264 (native) -> h264 (libx264))
  Stream #1:0 -> #0:1 (aac (native) -> aac (native))
Press [q] to stop, [?] for help
[swscaler @ 0000026138ce0b00] deprecated pixel format used, make sure you did set range correctly
[libx264 @ 00000261374712c0] using SAR=1/1
[libx264 @ 00000261374712c0] using cpu capabilities: MMX2 SSE2Fast SSSE3 SSE4.2 AVX FMA3 BMI2 AVX2 AVX512
[libx264 @ 00000261374712c0] profile High, level 4.0, 4:2:0, 8-bit
[libx264 @ 00000261374712c0] 264 - core 165 r3223 0480cb0 - H.264/MPEG-4 AVC codec - Copyleft 2003-2025 - http://www.videolan.org/x264.html - options: cabac=1 ref=1 deblock=1:0:0 analyse=0x3:0x3 me=dia subme=1 psy=1 psy_rd=1.00:0.00 mixed_ref=0 me_range=16 chroma_me=1 trellis=0 8x8dct=1 cqm=0 deadzone=21,11 fast_pskip=1 chroma_qp_offset=0 threads=24 lookahead_threads=4 sliced_threads=0 nr=0 decimate=1 interlaced=0 bluray_compat=0 constrained_intra=0 bframes=3 b_pyramid=2 b_adapt=1 b_bias=0 direct=1 weightb=1 open_gop=0 weightp=1 keyint=250 keyint_min=25 scenecut=40 intra_refresh=0 rc=crf mbtree=0 crf=23.0 qcomp=0.60 qpmin=0 qpmax=69 qpstep=4 ip_ratio=1.40 pb_ratio=1.30 aq=1:1.00
Output #0, mp4, to 'D:\PythonProjects\viral-cutter-ai\benchmarks\runs\20260510_171633\putin_parade_commentary\manual_generic\cuts_raw\segment_1_06-57_53_07-47_13.mp4':
  Metadata:
    software        : Lavf62.12.101
    encoder         : Lavf62.12.101
  Stream #0:0: Video: h264 (avc1 / 0x31637661), yuv420p(pc, bt470bg/unknown/unknown, progressive), 1080x1920 [SAR 1:1 DAR 9:16], q=2-31, 25 fps, 12800 tbn
    Metadata:
      encoder         : Lavc62.28.101 libx264
    Side data:
      CPB properties: bitrate max/min/avg: 0/0/0 buffer size: 0 vbv_delay: N/A
  Stream #0:1(eng): Audio: aac (LC) (mp4a / 0x6134706D), 48000 Hz, stereo, fltp, 192 kb/s (default)
    Metadata:
      encoder         : Lavc62.28.101 aac
      handler_name    : SoundHandler
frame=  226 fps=0.0 q=14.0 size=    2816KiB time=00:00:09.04 bitrate=2551.9kbits/s speed=17.6x elapsed=0:00:00.51    frame=  571 fps=548 q=19.0 size=    7936KiB time=00:00:22.84 bitrate=2846.4kbits/s speed=21.9x elapsed=0:00:01.04    frame=  866 fps=556 q=23.0 size=   14080KiB time=00:00:34.64 bitrate=3329.8kbits/s speed=22.2x elapsed=0:00:01.55    frame= 1187 fps=574 q=21.0 size=   20736KiB time=00:00:48.81 bitrate=3480.2kbits/s speed=23.6x elapsed=0:00:02.06    [mp4 @ 0000026137383600] Starting second pass: moving the moov atom to the beginning of the file
[out#0/mp4 @ 000002613746f300] video:20173KiB audio:1171KiB subtitle:0KiB other streams:0KiB global headers:0KiB muxing overhead: 0.176871%
frame= 1238 fps=587 q=-1.0 Lsize=   21381KiB time=00:00:49.52 bitrate=3537.0kbits/s speed=23.5x elapsed=0:00:02.10    
[libx264 @ 00000261374712c0] frame I:11    Avg QP:14.30  size:112216
[libx264 @ 00000261374712c0] frame P:403   Avg QP:16.71  size: 30320
[libx264 @ 00000261374712c0] frame B:824   Avg QP:18.38  size:  8741
[libx264 @ 00000261374712c0] consecutive B-frames:  7.7%  9.7%  3.2% 79.5%
[libx264 @ 00000261374712c0] mb I  I16..4: 22.3% 44.5% 33.1%
[libx264 @ 00000261374712c0] mb P  I16..4:  8.0% 19.1%  4.1%  P16..4: 35.0%  0.0%  0.0%  0.0%  0.0%    skip:33.8%
[libx264 @ 00000261374712c0] mb B  I16..4:  1.3%  3.0%  0.4%  B16..8: 19.9%  0.0%  0.0%  direct: 8.2%  skip:67.3%  L0:39.9% L1:48.0% BI:12.1%
[libx264 @ 00000261374712c0] 8x8 transform intra:60.7% inter:46.1%
[libx264 @ 00000261374712c0] coded y,uvDC,uvAC intra: 43.4% 36.5% 15.1% inter: 5.8% 12.3% 0.4%
[libx264 @ 00000261374712c0] i16 v,h,dc,p: 46% 26%  6% 22%
[libx264 @ 00000261374712c0] i8 v,h,dc,ddl,ddr,vr,hd,vl,hu: 18% 21% 14%  7%  8%  8%  9%  7%  9%
[libx264 @ 00000261374712c0] i4 v,h,dc,ddl,ddr,vr,hd,vl,hu: 22% 25%  9%  9%  7%  7%  7%  6%  8%
[libx264 @ 00000261374712c0] i8c dc,h,v,p: 54% 18% 17% 11%
[libx264 @ 00000261374712c0] Weighted P-Frames: Y:3.7% UV:0.7%
[libx264 @ 00000261374712c0] kb/s:3337.00
[aac @ 0000026136f95580] Qavg: 832.100
W0000 00:00:1778437393.150883   26208 inference_feedback_manager.cc:121] Feedback manager requires a model with a single signature inference. Disabling support for feedback tensors.
ffmpeg version 8.1.1-full_build-www.gyan.dev Copyright (c) 2000-2026 the FFmpeg developers
  built with gcc 15.2.0 (Rev13, Built by MSYS2 project)
  configuration: --enable-gpl --enable-version3 --enable-static --disable-w32threads --disable-autodetect --enable-cairo --enable-fontconfig --enable-iconv --enable-gnutls --enable-lcms2 --enable-libxml2 --enable-gmp --enable-bzlib --enable-lzma --enable-libsnappy --enable-zlib --enable-librist --enable-libsrt --enable-libssh --enable-libzmq --enable-avisynth --enable-libbluray --enable-libcaca --enable-libdvdnav --enable-libdvdread --enable-sdl2 --enable-libaribb24 --enable-libaribcaption --enable-libdav1d --enable-libdavs2 --enable-libopenjpeg --enable-libquirc --enable-libuavs3d --enable-libxevd --enable-libzvbi --enable-liboapv --enable-libqrencode --enable-librav1e --enable-libsvtav1 --enable-libvvenc --enable-libwebp --enable-libx264 --enable-libx265 --enable-libxavs2 --enable-libxeve --enable-libxvid --enable-libaom --enable-libjxl --enable-libsvtjpegxs --enable-libvpx --enable-mediafoundation --enable-libass --enable-frei0r --enable-libfreetype --enable-libfribidi --enable-libharfbuzz --enable-liblensfun --enable-libvidstab --enable-libvmaf --enable-libzimg --enable-amf --enable-cuda-llvm --enable-cuvid --enable-dxva2 --enable-d3d11va --enable-d3d12va --enable-ffnvcodec --enable-libvpl --enable-nvdec --enable-nvenc --enable-vaapi --enable-libshaderc --enable-vulkan --enable-libplacebo --enable-opencl --enable-libcdio --enable-openal --enable-libgme --enable-libmodplug --enable-libopenmpt --enable-libopencore-amrwb --enable-libmp3lame --enable-libshine --enable-libtheora --enable-libtwolame --enable-libvo-amrwbenc --enable-libcodec2 --enable-libilbc --enable-libgsm --enable-liblc3 --enable-libopencore-amrnb --enable-libopus --enable-libspeex --enable-libvorbis --enable-ladspa --enable-libbs2b --enable-libflite --enable-libmysofa --enable-librubberband --enable-libsoxr --enable-chromaprint --enable-whisper
  libavutil      60. 26.101 / 60. 26.101
  libavcodec     62. 28.101 / 62. 28.101
  libavformat    62. 12.101 / 62. 12.101
  libavdevice    62.  3.101 / 62.  3.101
  libavfilter    11. 14.101 / 11. 14.101
  libswscale      9.  5.101 /  9.  5.101
  libswresample   6.  3.101 /  6.  3.101
Input #0, avi, from 'C:\Users\Macie\AppData\Local\Temp\face_track_nja1xul_\segment_2_00-55_26_01-34_25_silent.avi':
  Metadata:
    software        : Lavf62.12.101
  Duration: 00:00:39.00, start: 0.000000, bitrate: 6607 kb/s
  Stream #0:0: Video: h264 (High) (H264 / 0x34363248), yuvj420p(pc, bt470bg/unknown/unknown, progressive), 1080x1920 [SAR 1:1 DAR 9:16], 6608 kb/s, 25 fps, 25 tbr, 25 tbn
Input #1, mov,mp4,m4a,3gp,3g2,mj2, from 'C:\Users\Macie\AppData\Local\Temp\face_track_nja1xul_\segment_2_00-55_26_01-34_25_audio.m4a':
  Metadata:
    major_brand     : M4A 
    minor_version   : 512
    compatible_brands: M4A isomiso2
    encoder         : Lavf62.12.101
  Duration: 00:00:38.99, start: 0.000000, bitrate: 195 kb/s
  Stream #1:0[0x1](eng): Audio: aac (LC) (mp4a / 0x6134706D), 48000 Hz, stereo, fltp, 193 kb/s (default)
    Metadata:
      handler_name    : SoundHandler
Stream mapping:
  Stream #0:0 -> #0:0 (h264 (native) -> h264 (libx264))
  Stream #1:0 -> #0:1 (aac (native) -> aac (native))
Press [q] to stop, [?] for help
[swscaler @ 0000020ed7a401c0] deprecated pixel format used, make sure you did set range correctly
[libx264 @ 0000020ed3d32500] using SAR=1/1
[libx264 @ 0000020ed3d32500] using cpu capabilities: MMX2 SSE2Fast SSSE3 SSE4.2 AVX FMA3 BMI2 AVX2 AVX512
[libx264 @ 0000020ed3d32500] profile High, level 4.0, 4:2:0, 8-bit
[libx264 @ 0000020ed3d32500] 264 - core 165 r3223 0480cb0 - H.264/MPEG-4 AVC codec - Copyleft 2003-2025 - http://www.videolan.org/x264.html - options: cabac=1 ref=1 deblock=1:0:0 analyse=0x3:0x3 me=dia subme=1 psy=1 psy_rd=1.00:0.00 mixed_ref=0 me_range=16 chroma_me=1 trellis=0 8x8dct=1 cqm=0 deadzone=21,11 fast_pskip=1 chroma_qp_offset=0 threads=24 lookahead_threads=4 sliced_threads=0 nr=0 decimate=1 interlaced=0 bluray_compat=0 constrained_intra=0 bframes=3 b_pyramid=2 b_adapt=1 b_bias=0 direct=1 weightb=1 open_gop=0 weightp=1 keyint=250 keyint_min=25 scenecut=40 intra_refresh=0 rc=crf mbtree=0 crf=23.0 qcomp=0.60 qpmin=0 qpmax=69 qpstep=4 ip_ratio=1.40 pb_ratio=1.30 aq=1:1.00
Output #0, mp4, to 'D:\PythonProjects\viral-cutter-ai\benchmarks\runs\20260510_171633\putin_parade_commentary\manual_generic\cuts_raw\segment_2_00-55_26_01-34_25.mp4':
  Metadata:
    software        : Lavf62.12.101
    encoder         : Lavf62.12.101
  Stream #0:0: Video: h264 (avc1 / 0x31637661), yuv420p(pc, bt470bg/unknown/unknown, progressive), 1080x1920 [SAR 1:1 DAR 9:16], q=2-31, 25 fps, 12800 tbn
    Metadata:
      encoder         : Lavc62.28.101 libx264
    Side data:
      CPB properties: bitrate max/min/avg: 0/0/0 buffer size: 0 vbv_delay: N/A
  Stream #0:1(eng): Audio: aac (LC) (mp4a / 0x6134706D), 48000 Hz, stereo, fltp, 192 kb/s (default)
    Metadata:
      encoder         : Lavc62.28.101 aac
      handler_name    : SoundHandler
frame=  229 fps=0.0 q=20.0 size=    2048KiB time=00:00:09.16 bitrate=1831.6kbits/s speed=18.1x elapsed=0:00:00.50    frame=  545 fps=535 q=23.0 size=    7168KiB time=00:00:21.80 bitrate=2693.6kbits/s speed=21.4x elapsed=0:00:01.01    frame=  873 fps=568 q=23.0 size=   13824KiB time=00:00:36.33 bitrate=3117.1kbits/s speed=23.6x elapsed=0:00:01.53    [mp4 @ 0000020ed5ba09c0] Starting second pass: moving the moov atom to the beginning of the file
[out#0/mp4 @ 0000020ed3d47700] video:14815KiB audio:926KiB subtitle:0KiB other streams:0KiB global headers:0KiB muxing overhead: 0.189321%
frame=  972 fps=592 q=-1.0 Lsize=   15771KiB time=00:00:38.88 bitrate=3322.9kbits/s speed=23.7x elapsed=0:00:01.64    
[libx264 @ 0000020ed3d32500] frame I:9     Avg QP:12.70  size: 91887
[libx264 @ 0000020ed3d32500] frame P:321   Avg QP:15.76  size: 27908
[libx264 @ 0000020ed3d32500] frame B:642   Avg QP:18.44  size:  8387
[libx264 @ 0000020ed3d32500] consecutive B-frames:  9.7%  5.8%  3.1% 81.5%
[libx264 @ 0000020ed3d32500] mb I  I16..4: 31.9% 38.8% 29.3%
[libx264 @ 0000020ed3d32500] mb P  I16..4:  8.5% 13.9%  3.7%  P16..4: 33.9%  0.0%  0.0%  0.0%  0.0%    skip:39.9%
[libx264 @ 0000020ed3d32500] mb B  I16..4:  0.9%  1.5%  0.2%  B16..8: 19.4%  0.0%  0.0%  direct: 9.6%  skip:68.4%  L0:38.3% L1:48.8% BI:13.0%
[libx264 @ 0000020ed3d32500] 8x8 transform intra:52.8% inter:47.9%
[libx264 @ 0000020ed3d32500] coded y,uvDC,uvAC intra: 43.0% 48.8% 23.3% inter: 5.9% 12.8% 0.4%
[libx264 @ 0000020ed3d32500] i16 v,h,dc,p: 65% 19%  5% 11%
[libx264 @ 0000020ed3d32500] i8 v,h,dc,ddl,ddr,vr,hd,vl,hu: 18% 18% 16%  8%  8%  8%  8%  8%  8%
[libx264 @ 0000020ed3d32500] i4 v,h,dc,ddl,ddr,vr,hd,vl,hu: 22% 26% 10%  8%  7%  7%  8%  6%  7%
[libx264 @ 0000020ed3d32500] i8c dc,h,v,p: 46% 19% 19% 15%
[libx264 @ 0000020ed3d32500] Weighted P-Frames: Y:4.4% UV:2.2%
[libx264 @ 0000020ed3d32500] kb/s:3121.44
[aac @ 0000020ed4245180] Qavg: 953.622
W0000 00:00:1778437412.924287   32132 inference_feedback_manager.cc:121] Feedback manager requires a model with a single signature inference. Disabling support for feedback tensors.
ffmpeg version 8.1.1-full_build-www.gyan.dev Copyright (c) 2000-2026 the FFmpeg developers
  built with gcc 15.2.0 (Rev13, Built by MSYS2 project)
  configuration: --enable-gpl --enable-version3 --enable-static --disable-w32threads --disable-autodetect --enable-cairo --enable-fontconfig --enable-iconv --enable-gnutls --enable-lcms2 --enable-libxml2 --enable-gmp --enable-bzlib --enable-lzma --enable-libsnappy --enable-zlib --enable-librist --enable-libsrt --enable-libssh --enable-libzmq --enable-avisynth --enable-libbluray --enable-libcaca --enable-libdvdnav --enable-libdvdread --enable-sdl2 --enable-libaribb24 --enable-libaribcaption --enable-libdav1d --enable-libdavs2 --enable-libopenjpeg --enable-libquirc --enable-libuavs3d --enable-libxevd --enable-libzvbi --enable-liboapv --enable-libqrencode --enable-librav1e --enable-libsvtav1 --enable-libvvenc --enable-libwebp --enable-libx264 --enable-libx265 --enable-libxavs2 --enable-libxeve --enable-libxvid --enable-libaom --enable-libjxl --enable-libsvtjpegxs --enable-libvpx --enable-mediafoundation --enable-libass --enable-frei0r --enable-libfreetype --enable-libfribidi --enable-libharfbuzz --enable-liblensfun --enable-libvidstab --enable-libvmaf --enable-libzimg --enable-amf --enable-cuda-llvm --enable-cuvid --enable-dxva2 --enable-d3d11va --enable-d3d12va --enable-ffnvcodec --enable-libvpl --enable-nvdec --enable-nvenc --enable-vaapi --enable-libshaderc --enable-vulkan --enable-libplacebo --enable-opencl --enable-libcdio --enable-openal --enable-libgme --enable-libmodplug --enable-libopenmpt --enable-libopencore-amrwb --enable-libmp3lame --enable-libshine --enable-libtheora --enable-libtwolame --enable-libvo-amrwbenc --enable-libcodec2 --enable-libilbc --enable-libgsm --enable-liblc3 --enable-libopencore-amrnb --enable-libopus --enable-libspeex --enable-libvorbis --enable-ladspa --enable-libbs2b --enable-libflite --enable-libmysofa --enable-librubberband --enable-libsoxr --enable-chromaprint --enable-whisper
  libavutil      60. 26.101 / 60. 26.101
  libavcodec     62. 28.101 / 62. 28.101
  libavformat    62. 12.101 / 62. 12.101
  libavdevice    62.  3.101 / 62.  3.101
  libavfilter    11. 14.101 / 11. 14.101
  libswscale      9.  5.101 /  9.  5.101
  libswresample   6.  3.101 /  6.  3.101
Input #0, avi, from 'C:\Users\Macie\AppData\Local\Temp\face_track_0z2p41nf\segment_3_10-08_63_10-39_61_silent.avi':
  Metadata:
    software        : Lavf62.12.101
  Duration: 00:00:31.00, start: 0.000000, bitrate: 7310 kb/s
  Stream #0:0: Video: h264 (High) (H264 / 0x34363248), yuvj420p(pc, bt470bg/unknown/unknown, progressive), 1080x1920 [SAR 1:1 DAR 9:16], 7313 kb/s, 25 fps, 25 tbr, 25 tbn
Input #1, mov,mp4,m4a,3gp,3g2,mj2, from 'C:\Users\Macie\AppData\Local\Temp\face_track_0z2p41nf\segment_3_10-08_63_10-39_61_audio.m4a':
  Metadata:
    major_brand     : M4A 
    minor_version   : 512
    compatible_brands: M4A isomiso2
    encoder         : Lavf62.12.101
  Duration: 00:00:30.98, start: 0.000000, bitrate: 193 kb/s
  Stream #1:0[0x1](eng): Audio: aac (LC) (mp4a / 0x6134706D), 48000 Hz, stereo, fltp, 191 kb/s (default)
    Metadata:
      handler_name    : SoundHandler
Stream mapping:
  Stream #0:0 -> #0:0 (h264 (native) -> h264 (libx264))
  Stream #1:0 -> #0:1 (aac (native) -> aac (native))
Press [q] to stop, [?] for help
[swscaler @ 0000022674ced700] deprecated pixel format used, make sure you did set range correctly
[libx264 @ 0000022672b900c0] using SAR=1/1
[libx264 @ 0000022672b900c0] using cpu capabilities: MMX2 SSE2Fast SSSE3 SSE4.2 AVX FMA3 BMI2 AVX2 AVX512
[libx264 @ 0000022672b900c0] profile High, level 4.0, 4:2:0, 8-bit
[libx264 @ 0000022672b900c0] 264 - core 165 r3223 0480cb0 - H.264/MPEG-4 AVC codec - Copyleft 2003-2025 - http://www.videolan.org/x264.html - options: cabac=1 ref=1 deblock=1:0:0 analyse=0x3:0x3 me=dia subme=1 psy=1 psy_rd=1.00:0.00 mixed_ref=0 me_range=16 chroma_me=1 trellis=0 8x8dct=1 cqm=0 deadzone=21,11 fast_pskip=1 chroma_qp_offset=0 threads=24 lookahead_threads=4 sliced_threads=0 nr=0 decimate=1 interlaced=0 bluray_compat=0 constrained_intra=0 bframes=3 b_pyramid=2 b_adapt=1 b_bias=0 direct=1 weightb=1 open_gop=0 weightp=1 keyint=250 keyint_min=25 scenecut=40 intra_refresh=0 rc=crf mbtree=0 crf=23.0 qcomp=0.60 qpmin=0 qpmax=69 qpstep=4 ip_ratio=1.40 pb_ratio=1.30 aq=1:1.00
Output #0, mp4, to 'D:\PythonProjects\viral-cutter-ai\benchmarks\runs\20260510_171633\putin_parade_commentary\manual_generic\cuts_raw\segment_3_10-08_63_10-39_61.mp4':
  Metadata:
    software        : Lavf62.12.101
    encoder         : Lavf62.12.101
  Stream #0:0: Video: h264 (avc1 / 0x31637661), yuv420p(pc, bt470bg/unknown/unknown, progressive), 1080x1920 [SAR 1:1 DAR 9:16], q=2-31, 25 fps, 12800 tbn
    Metadata:
      encoder         : Lavc62.28.101 libx264
    Side data:
      CPB properties: bitrate max/min/avg: 0/0/0 buffer size: 0 vbv_delay: N/A
  Stream #0:1(eng): Audio: aac (LC) (mp4a / 0x6134706D), 48000 Hz, stereo, fltp, 192 kb/s (default)
    Metadata:
      encoder         : Lavc62.28.101 aac
      handler_name    : SoundHandler
frame=  219 fps=0.0 q=23.0 size=    4096KiB time=00:00:08.76 bitrate=3830.5kbits/s speed=17.2x elapsed=0:00:00.50    frame=  530 fps=512 q=23.0 size=    9216KiB time=00:00:22.50 bitrate=3354.5kbits/s speed=21.7x elapsed=0:00:01.03    [mp4 @ 0000022673231a40] Starting second pass: moving the moov atom to the beginning of the file
[out#0/mp4 @ 0000022670c3c100] video:12650KiB audio:734KiB subtitle:0KiB other streams:0KiB global headers:0KiB muxing overhead: 0.181885%
frame=  772 fps=589 q=-1.0 Lsize=   13408KiB time=00:00:30.88 bitrate=3557.1kbits/s speed=23.5x elapsed=0:00:01.31    
[libx264 @ 0000022672b900c0] frame I:5     Avg QP:14.35  size: 74261
[libx264 @ 0000022672b900c0] frame P:212   Avg QP:16.08  size: 32804
[libx264 @ 0000022672b900c0] frame B:555   Avg QP:18.57  size: 10139
[libx264 @ 0000022672b900c0] consecutive B-frames:  2.3%  4.7%  2.3% 90.7%
[libx264 @ 0000022672b900c0] mb I  I16..4: 30.8% 39.6% 29.6%
[libx264 @ 0000022672b900c0] mb P  I16..4:  8.7% 18.8%  5.1%  P16..4: 34.6%  0.0%  0.0%  0.0%  0.0%    skip:32.8%
[libx264 @ 0000022672b900c0] mb B  I16..4:  1.0%  2.4%  0.4%  B16..8: 23.3%  0.0%  0.0%  direct:10.0%  skip:62.8%  L0:39.7% L1:48.0% BI:12.3%
[libx264 @ 0000022672b900c0] 8x8 transform intra:57.9% inter:50.3%
[libx264 @ 0000022672b900c0] coded y,uvDC,uvAC intra: 48.5% 48.7% 23.2% inter: 5.7% 15.8% 0.5%
[libx264 @ 0000022672b900c0] i16 v,h,dc,p: 55% 27%  7% 12%
[libx264 @ 0000022672b900c0] i8 v,h,dc,ddl,ddr,vr,hd,vl,hu: 17% 21% 16%  7%  8%  8%  9%  6%  8%
[libx264 @ 0000022672b900c0] i4 v,h,dc,ddl,ddr,vr,hd,vl,hu: 19% 28% 10%  8%  7%  6%  8%  5%  8%
[libx264 @ 0000022672b900c0] i8c dc,h,v,p: 44% 23% 19% 13%
[libx264 @ 0000022672b900c0] Weighted P-Frames: Y:5.2% UV:1.4%
[libx264 @ 0000022672b900c0] kb/s:3355.70
[aac @ 000002267301e080] Qavg: 924.432
W0000 00:00:1778437428.728899   27744 inference_feedback_manager.cc:121] Feedback manager requires a model with a single signature inference. Disabling support for feedback tensors.
ffmpeg version 8.1.1-full_build-www.gyan.dev Copyright (c) 2000-2026 the FFmpeg developers
  built with gcc 15.2.0 (Rev13, Built by MSYS2 project)
  configuration: --enable-gpl --enable-version3 --enable-static --disable-w32threads --disable-autodetect --enable-cairo --enable-fontconfig --enable-iconv --enable-gnutls --enable-lcms2 --enable-libxml2 --enable-gmp --enable-bzlib --enable-lzma --enable-libsnappy --enable-zlib --enable-librist --enable-libsrt --enable-libssh --enable-libzmq --enable-avisynth --enable-libbluray --enable-libcaca --enable-libdvdnav --enable-libdvdread --enable-sdl2 --enable-libaribb24 --enable-libaribcaption --enable-libdav1d --enable-libdavs2 --enable-libopenjpeg --enable-libquirc --enable-libuavs3d --enable-libxevd --enable-libzvbi --enable-liboapv --enable-libqrencode --enable-librav1e --enable-libsvtav1 --enable-libvvenc --enable-libwebp --enable-libx264 --enable-libx265 --enable-libxavs2 --enable-libxeve --enable-libxvid --enable-libaom --enable-libjxl --enable-libsvtjpegxs --enable-libvpx --enable-mediafoundation --enable-libass --enable-frei0r --enable-libfreetype --enable-libfribidi --enable-libharfbuzz --enable-liblensfun --enable-libvidstab --enable-libvmaf --enable-libzimg --enable-amf --enable-cuda-llvm --enable-cuvid --enable-dxva2 --enable-d3d11va --enable-d3d12va --enable-ffnvcodec --enable-libvpl --enable-nvdec --enable-nvenc --enable-vaapi --enable-libshaderc --enable-vulkan --enable-libplacebo --enable-opencl --enable-libcdio --enable-openal --enable-libgme --enable-libmodplug --enable-libopenmpt --enable-libopencore-amrwb --enable-libmp3lame --enable-libshine --enable-libtheora --enable-libtwolame --enable-libvo-amrwbenc --enable-libcodec2 --enable-libilbc --enable-libgsm --enable-liblc3 --enable-libopencore-amrnb --enable-libopus --enable-libspeex --enable-libvorbis --enable-ladspa --enable-libbs2b --enable-libflite --enable-libmysofa --enable-librubberband --enable-libsoxr --enable-chromaprint --enable-whisper
  libavutil      60. 26.101 / 60. 26.101
  libavcodec     62. 28.101 / 62. 28.101
  libavformat    62. 12.101 / 62. 12.101
  libavdevice    62.  3.101 / 62.  3.101
  libavfilter    11. 14.101 / 11. 14.101
  libswscale      9.  5.101 /  9.  5.101
  libswresample   6.  3.101 /  6.  3.101
Input #0, avi, from 'C:\Users\Macie\AppData\Local\Temp\face_track_xurd0wjr\segment_4_12-31_65_13-06_09_silent.avi':
  Metadata:
    software        : Lavf62.12.101
  Duration: 00:00:34.44, start: 0.000000, bitrate: 7812 kb/s
  Stream #0:0: Video: h264 (High) (H264 / 0x34363248), yuvj420p(pc, bt470bg/unknown/unknown, progressive), 1080x1920 [SAR 1:1 DAR 9:16], 7815 kb/s, 25 fps, 25 tbr, 25 tbn
Input #1, mov,mp4,m4a,3gp,3g2,mj2, from 'C:\Users\Macie\AppData\Local\Temp\face_track_xurd0wjr\segment_4_12-31_65_13-06_09_audio.m4a':
  Metadata:
    major_brand     : M4A 
    minor_version   : 512
    compatible_brands: M4A isomiso2
    encoder         : Lavf62.12.101
  Duration: 00:00:34.44, start: 0.000000, bitrate: 193 kb/s
  Stream #1:0[0x1](eng): Audio: aac (LC) (mp4a / 0x6134706D), 48000 Hz, stereo, fltp, 191 kb/s (default)
    Metadata:
      handler_name    : SoundHandler
Stream mapping:
  Stream #0:0 -> #0:0 (h264 (native) -> h264 (libx264))
  Stream #1:0 -> #0:1 (aac (native) -> aac (native))
Press [q] to stop, [?] for help
[swscaler @ 000001dcc17a28c0] deprecated pixel format used, make sure you did set range correctly
[libx264 @ 000001dcbfc30300] using SAR=1/1
[libx264 @ 000001dcbfc30300] using cpu capabilities: MMX2 SSE2Fast SSSE3 SSE4.2 AVX FMA3 BMI2 AVX2 AVX512
[libx264 @ 000001dcbfc30300] profile High, level 4.0, 4:2:0, 8-bit
[libx264 @ 000001dcbfc30300] 264 - core 165 r3223 0480cb0 - H.264/MPEG-4 AVC codec - Copyleft 2003-2025 - http://www.videolan.org/x264.html - options: cabac=1 ref=1 deblock=1:0:0 analyse=0x3:0x3 me=dia subme=1 psy=1 psy_rd=1.00:0.00 mixed_ref=0 me_range=16 chroma_me=1 trellis=0 8x8dct=1 cqm=0 deadzone=21,11 fast_pskip=1 chroma_qp_offset=0 threads=24 lookahead_threads=4 sliced_threads=0 nr=0 decimate=1 interlaced=0 bluray_compat=0 constrained_intra=0 bframes=3 b_pyramid=2 b_adapt=1 b_bias=0 direct=1 weightb=1 open_gop=0 weightp=1 keyint=250 keyint_min=25 scenecut=40 intra_refresh=0 rc=crf mbtree=0 crf=23.0 qcomp=0.60 qpmin=0 qpmax=69 qpstep=4 ip_ratio=1.40 pb_ratio=1.30 aq=1:1.00
Output #0, mp4, to 'D:\PythonProjects\viral-cutter-ai\benchmarks\runs\20260510_171633\putin_parade_commentary\manual_generic\cuts_raw\segment_4_12-31_65_13-06_09.mp4':
  Metadata:
    software        : Lavf62.12.101
    encoder         : Lavf62.12.101
  Stream #0:0: Video: h264 (avc1 / 0x31637661), yuv420p(pc, bt470bg/unknown/unknown, progressive), 1080x1920 [SAR 1:1 DAR 9:16], q=2-31, 25 fps, 12800 tbn
    Metadata:
      encoder         : Lavc62.28.101 libx264
    Side data:
      CPB properties: bitrate max/min/avg: 0/0/0 buffer size: 0 vbv_delay: N/A
  Stream #0:1(eng): Audio: aac (LC) (mp4a / 0x6134706D), 48000 Hz, stereo, fltp, 192 kb/s (default)
    Metadata:
      encoder         : Lavc62.28.101 aac
      handler_name    : SoundHandler
frame=  219 fps=0.0 q=20.0 size=    4096KiB time=00:00:08.76 bitrate=3830.5kbits/s speed=16.9x elapsed=0:00:00.51    frame=  519 fps=501 q=22.0 size=    8960KiB time=00:00:20.76 bitrate=3535.7kbits/s speed=20.1x elapsed=0:00:01.03    [mp4 @ 000001dcbf969980] Starting second pass: moving the moov atom to the beginning of the file
[out#0/mp4 @ 000001dcbfd7cbc0] video:14609KiB audio:814KiB subtitle:0KiB other streams:0KiB global headers:0KiB muxing overhead: 0.174843%
frame=  859 fps=588 q=-1.0 Lsize=   15449KiB time=00:00:34.36 bitrate=3683.4kbits/s speed=23.5x elapsed=0:00:01.46    
[libx264 @ 000001dcbfc30300] frame I:5     Avg QP:15.31  size: 85174
[libx264 @ 000001dcbfc30300] frame P:230   Avg QP:17.25  size: 35447
[libx264 @ 000001dcbfc30300] frame B:624   Avg QP:20.39  size: 10224
[libx264 @ 000001dcbfc30300] consecutive B-frames:  2.2%  2.8%  0.0% 95.0%
[libx264 @ 000001dcbfc30300] mb I  I16..4: 28.1% 34.5% 37.4%
[libx264 @ 000001dcbfc30300] mb P  I16..4:  8.2% 15.4%  4.2%  P16..4: 39.7%  0.0%  0.0%  0.0%  0.0%    skip:32.5%
[libx264 @ 000001dcbfc30300] mb B  I16..4:  0.7%  2.0%  0.3%  B16..8: 21.2%  0.0%  0.0%  direct:11.8%  skip:64.0%  L0:39.9% L1:46.6% BI:13.4%
[libx264 @ 000001dcbfc30300] 8x8 transform intra:56.6% inter:42.3%
[libx264 @ 000001dcbfc30300] coded y,uvDC,uvAC intra: 49.9% 46.9% 22.4% inter: 7.2% 15.0% 0.6%
[libx264 @ 000001dcbfc30300] i16 v,h,dc,p: 59% 26%  6% 10%
[libx264 @ 000001dcbfc30300] i8 v,h,dc,ddl,ddr,vr,hd,vl,hu: 18% 18% 15%  7%  8%  9%  9%  8%  9%
[libx264 @ 000001dcbfc30300] i4 v,h,dc,ddl,ddr,vr,hd,vl,hu: 24% 20% 10%  8%  8%  8%  8%  7%  7%
[libx264 @ 000001dcbfc30300] i8c dc,h,v,p: 52% 17% 19% 12%
[libx264 @ 000001dcbfc30300] Weighted P-Frames: Y:1.7% UV:0.0%
[libx264 @ 000001dcbfc30300] kb/s:3482.78
[aac @ 000001dcbfcafe40] Qavg: 946.323
W0000 00:00:1778437446.476029   32728 inference_feedback_manager.cc:121] Feedback manager requires a model with a single signature inference. Disabling support for feedback tensors.
ffmpeg version 8.1.1-full_build-www.gyan.dev Copyright (c) 2000-2026 the FFmpeg developers
  built with gcc 15.2.0 (Rev13, Built by MSYS2 project)
  configuration: --enable-gpl --enable-version3 --enable-static --disable-w32threads --disable-autodetect --enable-cairo --enable-fontconfig --enable-iconv --enable-gnutls --enable-lcms2 --enable-libxml2 --enable-gmp --enable-bzlib --enable-lzma --enable-libsnappy --enable-zlib --enable-librist --enable-libsrt --enable-libssh --enable-libzmq --enable-avisynth --enable-libbluray --enable-libcaca --enable-libdvdnav --enable-libdvdread --enable-sdl2 --enable-libaribb24 --enable-libaribcaption --enable-libdav1d --enable-libdavs2 --enable-libopenjpeg --enable-libquirc --enable-libuavs3d --enable-libxevd --enable-libzvbi --enable-liboapv --enable-libqrencode --enable-librav1e --enable-libsvtav1 --enable-libvvenc --enable-libwebp --enable-libx264 --enable-libx265 --enable-libxavs2 --enable-libxeve --enable-libxvid --enable-libaom --enable-libjxl --enable-libsvtjpegxs --enable-libvpx --enable-mediafoundation --enable-libass --enable-frei0r --enable-libfreetype --enable-libfribidi --enable-libharfbuzz --enable-liblensfun --enable-libvidstab --enable-libvmaf --enable-libzimg --enable-amf --enable-cuda-llvm --enable-cuvid --enable-dxva2 --enable-d3d11va --enable-d3d12va --enable-ffnvcodec --enable-libvpl --enable-nvdec --enable-nvenc --enable-vaapi --enable-libshaderc --enable-vulkan --enable-libplacebo --enable-opencl --enable-libcdio --enable-openal --enable-libgme --enable-libmodplug --enable-libopenmpt --enable-libopencore-amrwb --enable-libmp3lame --enable-libshine --enable-libtheora --enable-libtwolame --enable-libvo-amrwbenc --enable-libcodec2 --enable-libilbc --enable-libgsm --enable-liblc3 --enable-libopencore-amrnb --enable-libopus --enable-libspeex --enable-libvorbis --enable-ladspa --enable-libbs2b --enable-libflite --enable-libmysofa --enable-librubberband --enable-libsoxr --enable-chromaprint --enable-whisper
  libavutil      60. 26.101 / 60. 26.101
  libavcodec     62. 28.101 / 62. 28.101
  libavformat    62. 12.101 / 62. 12.101
  libavdevice    62.  3.101 / 62.  3.101
  libavfilter    11. 14.101 / 11. 14.101
  libswscale      9.  5.101 /  9.  5.101
  libswresample   6.  3.101 /  6.  3.101
Input #0, avi, from 'C:\Users\Macie\AppData\Local\Temp\face_track_dufc5w7x\segment_5_03-28_09_04-02_47_silent.avi':
  Metadata:
    software        : Lavf62.12.101
  Duration: 00:00:34.36, start: 0.000000, bitrate: 7374 kb/s
  Stream #0:0: Video: h264 (High) (H264 / 0x34363248), yuvj420p(pc, bt470bg/unknown/unknown, progressive), 1080x1920 [SAR 1:1 DAR 9:16], 7376 kb/s, 25 fps, 25 tbr, 25 tbn
Input #1, mov,mp4,m4a,3gp,3g2,mj2, from 'C:\Users\Macie\AppData\Local\Temp\face_track_dufc5w7x\segment_5_03-28_09_04-02_47_audio.m4a':
  Metadata:
    major_brand     : M4A 
    minor_version   : 512
    compatible_brands: M4A isomiso2
    encoder         : Lavf62.12.101
  Duration: 00:00:34.38, start: 0.000000, bitrate: 193 kb/s
  Stream #1:0[0x1](eng): Audio: aac (LC) (mp4a / 0x6134706D), 48000 Hz, stereo, fltp, 191 kb/s (default)
    Metadata:
      handler_name    : SoundHandler
Stream mapping:
  Stream #0:0 -> #0:0 (h264 (native) -> h264 (libx264))
  Stream #1:0 -> #0:1 (aac (native) -> aac (native))
Press [q] to stop, [?] for help
[swscaler @ 000001b9186cda40] deprecated pixel format used, make sure you did set range correctly
[libx264 @ 000001b91476e100] using SAR=1/1
[libx264 @ 000001b91476e100] using cpu capabilities: MMX2 SSE2Fast SSSE3 SSE4.2 AVX FMA3 BMI2 AVX2 AVX512
[libx264 @ 000001b91476e100] profile High, level 4.0, 4:2:0, 8-bit
[libx264 @ 000001b91476e100] 264 - core 165 r3223 0480cb0 - H.264/MPEG-4 AVC codec - Copyleft 2003-2025 - http://www.videolan.org/x264.html - options: cabac=1 ref=1 deblock=1:0:0 analyse=0x3:0x3 me=dia subme=1 psy=1 psy_rd=1.00:0.00 mixed_ref=0 me_range=16 chroma_me=1 trellis=0 8x8dct=1 cqm=0 deadzone=21,11 fast_pskip=1 chroma_qp_offset=0 threads=24 lookahead_threads=4 sliced_threads=0 nr=0 decimate=1 interlaced=0 bluray_compat=0 constrained_intra=0 bframes=3 b_pyramid=2 b_adapt=1 b_bias=0 direct=1 weightb=1 open_gop=0 weightp=1 keyint=250 keyint_min=25 scenecut=40 intra_refresh=0 rc=crf mbtree=0 crf=23.0 qcomp=0.60 qpmin=0 qpmax=69 qpstep=4 ip_ratio=1.40 pb_ratio=1.30 aq=1:1.00
Output #0, mp4, to 'D:\PythonProjects\viral-cutter-ai\benchmarks\runs\20260510_171633\putin_parade_commentary\manual_generic\cuts_raw\segment_5_03-28_09_04-02_47.mp4':
  Metadata:
    software        : Lavf62.12.101
    encoder         : Lavf62.12.101
  Stream #0:0: Video: h264 (avc1 / 0x31637661), yuv420p(pc, bt470bg/unknown/unknown, progressive), 1080x1920 [SAR 1:1 DAR 9:16], q=2-31, 25 fps, 12800 tbn
    Metadata:
      encoder         : Lavc62.28.101 libx264
    Side data:
      CPB properties: bitrate max/min/avg: 0/0/0 buffer size: 0 vbv_delay: N/A
  Stream #0:1(eng): Audio: aac (LC) (mp4a / 0x6134706D), 48000 Hz, stereo, fltp, 192 kb/s (default)
    Metadata:
      encoder         : Lavc62.28.101 aac
      handler_name    : SoundHandler
frame=  197 fps=0.0 q=24.0 size=    3328KiB time=00:00:07.88 bitrate=3459.8kbits/s speed=15.5x elapsed=0:00:00.50    frame=  310 fps=303 q=24.0 size=    5376KiB time=00:00:12.36 bitrate=3563.2kbits/s speed=12.1x elapsed=0:00:01.02    frame=  522 fps=337 q=23.0 size=    9472KiB time=00:00:20.88 bitrate=3716.2kbits/s speed=13.5x elapsed=0:00:01.54    [mp4 @ 000001b91676f400] Starting second pass: moving the moov atom to the beginning of the file
[out#0/mp4 @ 000001b9167728c0] video:13842KiB audio:813KiB subtitle:0KiB other streams:0KiB global headers:0KiB muxing overhead: 0.183115%
frame=  857 fps=429 q=-1.0 Lsize=   14682KiB time=00:00:34.28 bitrate=3508.6kbits/s speed=17.2x elapsed=0:00:01.99    
[libx264 @ 000001b91476e100] frame I:6     Avg QP:14.83  size: 80937
[libx264 @ 000001b91476e100] frame P:235   Avg QP:17.03  size: 33064
[libx264 @ 000001b91476e100] frame B:616   Avg QP:19.21  size:  9608
[libx264 @ 000001b91476e100] consecutive B-frames:  2.8%  3.7%  1.1% 92.4%
[libx264 @ 000001b91476e100] mb I  I16..4: 27.5% 41.0% 31.5%
[libx264 @ 000001b91476e100] mb P  I16..4:  7.6% 17.4%  4.1%  P16..4: 42.6%  0.0%  0.0%  0.0%  0.0%    skip:28.4%
[libx264 @ 000001b91476e100] mb B  I16..4:  0.9%  1.9%  0.2%  B16..8: 23.9%  0.0%  0.0%  direct:11.4%  skip:61.7%  L0:39.4% L1:48.1% BI:12.5%
[libx264 @ 000001b91476e100] 8x8 transform intra:59.1% inter:49.7%
[libx264 @ 000001b91476e100] coded y,uvDC,uvAC intra: 46.8% 53.1% 24.0% inter: 6.4% 16.6% 0.6%
[libx264 @ 000001b91476e100] i16 v,h,dc,p: 53% 25%  7% 15%
[libx264 @ 000001b91476e100] i8 v,h,dc,ddl,ddr,vr,hd,vl,hu: 18% 19% 15%  7%  8%  9%  9%  7%  8%
[libx264 @ 000001b91476e100] i4 v,h,dc,ddl,ddr,vr,hd,vl,hu: 22% 24% 11%  8%  7%  7%  8%  6%  7%
[libx264 @ 000001b91476e100] i8c dc,h,v,p: 43% 21% 21% 15%
[libx264 @ 000001b91476e100] Weighted P-Frames: Y:3.0% UV:1.3%
[libx264 @ 000001b91476e100] kb/s:3307.82
[aac @ 000001b9166b0440] Qavg: 779.223
Cutting segment 1: 417.53s - 467.13s -> D:\PythonProjects\viral-cutter-ai\benchmarks\runs\20260510_171633\putin_parade_commentary\manual_generic\cuts_raw\segment_1_06-57_53_07-47_13.mp4
Cutting segment 2: 55.26s - 94.25s -> D:\PythonProjects\viral-cutter-ai\benchmarks\runs\20260510_171633\putin_parade_commentary\manual_generic\cuts_raw\segment_2_00-55_26_01-34_25.mp4
Cutting segment 3: 608.63s - 639.61s -> D:\PythonProjects\viral-cutter-ai\benchmarks\runs\20260510_171633\putin_parade_commentary\manual_generic\cuts_raw\segment_3_10-08_63_10-39_61.mp4
Cutting segment 4: 751.65s - 786.09s -> D:\PythonProjects\viral-cutter-ai\benchmarks\runs\20260510_171633\putin_parade_commentary\manual_generic\cuts_raw\segment_4_12-31_65_13-06_09.mp4
Cutting segment 5: 208.09s - 242.47s -> D:\PythonProjects\viral-cutter-ai\benchmarks\runs\20260510_171633\putin_parade_commentary\manual_generic\cuts_raw\segment_5_03-28_09_04-02_47.mp4
Done. Files saved in D:\PythonProjects\viral-cutter-ai\benchmarks\runs\20260510_171633\putin_parade_commentary\manual_generic\cuts_raw
$ D:\PythonProjects\viral-cutter-ai\.venv\Scripts\python.exe D:\PythonProjects\viral-cutter-ai\cutter.py --video D:\PythonProjects\viral-cutter-ai\benchmarks\assets\putin_parade_commentary\input\source.mp4 --windows D:\PythonProjects\viral-cutter-ai\benchmarks\runs\20260510_171633\putin_parade_commentary\manual_generic\top_windows.json --transcript D:\PythonProjects\viral-cutter-ai\benchmarks\runs\20260510_171633\putin_parade_commentary\shared\transcript.json --output-dir D:\PythonProjects\viral-cutter-ai\benchmarks\runs\20260510_171633\putin_parade_commentary\manual_generic\cuts_raw --cutting-log D:\PythonProjects\viral-cutter-ai\benchmarks\runs\20260510_171633\putin_parade_commentary\manual_generic\cutting_logic.json

